@@ -0,0 +1,13 @@
<?xml version="1.0" encoding="iso-8859-1"?>
<!-- Generator: Adobe Illustrator 17.0.0, SVG Export Plug-In . SVG Version: 6.00 Build 0)  -->
<!DOCTYPE svg PUBLIC "-//W3C//DTD SVG 1.1//EN" "http://www.w3.org/Graphics/SVG/1.1/DTD/svg11.dtd">
<svg version="1.1" id="Capa_1" xmlns="http://www.w3.org/2000/svg" xmlns:xlink="http://www.w3.org/1999/xlink" x="0px" y="0px"
	 width="64px" height="64px" viewBox="0 0 64 64" style="enable-background:new 0 0 64 64;" xml:space="preserve">
<path d="M21.908,57.167h21.324c2.609,0,4.717-2.111,4.717-4.717V19.36H17.194V52.45C17.194,55.056,19.306,57.167,21.908,57.167z
	 M39.941,25.353c0-0.883,0.713-1.603,1.6-1.603c0.883,0,1.6,0.72,1.6,1.603V50.98c0,0.887-0.717,1.604-1.6,1.604
	c-0.887,0-1.6-0.717-1.6-1.604V25.353z M31.021,25.353c0-0.883,0.714-1.603,1.6-1.603c0.883,0,1.6,0.72,1.6,1.603V50.98
	c0,0.887-0.717,1.604-1.6,1.604c-0.886,0-1.6-0.717-1.6-1.604V25.353z M22.106,25.353c0-0.883,0.713-1.603,1.596-1.603
	c0.883,0,1.604,0.72,1.604,1.603V50.98c0,0.887-0.721,1.604-1.604,1.604c-0.883,0-1.596-0.717-1.596-1.604V25.353z"/>
<path d="M44.916,11.92h-6.493c-0.156-1.413-1.342-2.516-2.793-2.516h-6.112c-1.459,0-2.642,1.103-2.797,2.516h-6.489
	c-3.182,0-5.752,2.578-5.77,5.752h36.226C50.676,14.498,48.102,11.92,44.916,11.92z"/>
</svg>
